<svg viewBox="0 0 140 25" xmlns="http://www.w3.org/2000/svg" aria-label="logo"><path d="M76.891 6.363a10.048 10.048 0 0 0-1.596-1.315l-.018-.013c-.013-.009-.027-.019-.041-.027a1.215 1.215 0 0 0-.636-.178c-.68 0-1.231.555-1.231 1.241 0 .436.222.82.56 1.042a7.66 7.66 0 0 1 1.22 1.006c1.41 1.421 2.095 3.09 2.095 5.103s-.685 3.683-2.094 5.103c-1.41 1.421-3.064 2.112-5.06 2.112-1.996 0-3.65-.69-5.06-2.112-1.408-1.42-2.092-3.09-2.092-5.103 0-2.012.684-3.682 2.093-5.103.388-.39.794-.725 1.22-1.006.338-.222.561-.606.561-1.042 0-.686-.55-1.241-1.23-1.241-.234 0-.452.065-.637.178-.014.008-.027.018-.041.027l-.019.013c-.56.37-1.093.809-1.595 1.315-1.867 1.882-2.812 4.19-2.812 6.86 0 2.669.945 4.977 2.811 6.858 1.867 1.883 4.155 2.837 6.801 2.837 2.647 0 4.935-.954 6.801-2.837 1.866-1.88 2.812-4.189 2.812-6.859 0-2.669-.946-4.977-2.812-6.859Z"></path><path d="M70 9.55c-.79 0-1.429-.562-1.429-1.254V1.253C68.571.56 69.211 0 70 0s1.428.56 1.428 1.253v7.043c0 .692-.64 1.253-1.428 1.253Zm28.954 7.098c0-.675-.526-1.223-1.175-1.223-.464 0-.867.28-1.057.688-.006.015-.011.03-.018.044-.003.01-.008.019-.012.028a7.064 7.064 0 0 1-1.464 2.22c-1.34 1.397-2.915 2.075-4.813 2.075h-.824c-1.899 0-3.473-.678-4.813-2.075-1.34-1.395-1.992-3.035-1.992-5.013v-2.754h6.571c.647 0 1.17-.545 1.17-1.218 0-.673-.523-1.22-1.17-1.22h-6.571V1.725c0-.673-.524-1.218-1.17-1.218-.647 0-1.17.545-1.17 1.218v11.668c0 2.623.9 4.891 2.675 6.74 1.775 1.848 3.952 2.786 6.47 2.786h.824c2.517 0 4.696-.94 6.476-2.794a9.524 9.524 0 0 0 1.988-3.038c.05-.136.075-.284.075-.438Zm39.647.208c-.456 0-.857.24-1.081.6a7.676 7.676 0 0 1-1.325 1.741c-1.453 1.447-3.16 2.15-5.219 2.15s-3.767-.703-5.22-2.15c-1.453-1.447-2.16-3.145-2.16-5.194 0-2.05.707-3.749 2.16-5.195 1.453-1.447 3.161-2.15 5.22-2.15 2.059 0 3.766.703 5.219 2.15.54.537.985 1.122 1.325 1.741.224.36.625.6 1.081.6a1.267 1.267 0 0 0 1.108-1.89 10.51 10.51 0 0 0-1.711-2.249c-1.931-1.909-4.293-2.878-7.022-2.878-2.731 0-5.092.972-7.017 2.888-1.925 1.915-2.902 4.265-2.902 6.982 0 2.718.977 5.068 2.902 6.983 1.925 1.916 4.286 2.888 7.017 2.888 2.729 0 5.091-.969 7.022-2.878a10.512 10.512 0 0 0 1.711-2.25 1.267 1.267 0 0 0-1.108-1.888Zm-81.054 0c-.445 0-.835.24-1.052.6a7.685 7.685 0 0 1-1.289 1.741c-1.414 1.447-3.076 2.15-5.078 2.15-2.004 0-3.665-.703-5.08-2.15-1.414-1.447-2.101-3.145-2.101-5.194 0-2.05.687-3.749 2.101-5.195 1.415-1.447 3.076-2.15 5.08-2.15 2.002 0 3.664.703 5.078 2.15a7.694 7.694 0 0 1 1.289 1.741c.217.36.607.6 1.052.6.683 0 1.236-.566 1.236-1.264 0-.227-.057-.44-.16-.625a10.393 10.393 0 0 0-1.663-2.25c-1.879-1.909-4.178-2.878-6.832-2.878-2.658 0-4.955.972-6.828 2.888-1.873 1.915-2.823 4.265-2.823 6.982 0 2.718.95 5.068 2.823 6.983 1.873 1.916 4.17 2.888 6.828 2.888 2.654 0 4.953-.969 6.831-2.878a10.395 10.395 0 0 0 1.665-2.25c.102-.184.159-.398.159-.624 0-.699-.553-1.265-1.236-1.265Zm-40.003 0c-.457 0-.858.24-1.083.6a7.685 7.685 0 0 1-1.323 1.741c-1.453 1.447-3.162 2.15-5.22 2.15-2.059 0-3.766-.703-5.22-2.15-1.454-1.447-2.16-3.145-2.16-5.194 0-2.05.706-3.749 2.16-5.195 1.454-1.447 3.161-2.15 5.22-2.15 2.058 0 3.767.703 5.22 2.15.54.537.984 1.122 1.323 1.741a1.273 1.273 0 0 0 2.353-.664c0-.227-.058-.44-.163-.625a10.431 10.431 0 0 0-1.71-2.25c-1.93-1.909-4.294-2.878-7.023-2.878-2.731 0-5.092.972-7.016 2.888C.977 8.935 0 11.285 0 14.002c0 2.718.977 5.068 2.902 6.983 1.924 1.916 4.285 2.888 7.016 2.888 2.73 0 5.092-.969 7.023-2.878a10.433 10.433 0 0 0 1.71-2.25 1.267 1.267 0 0 0-1.107-1.888Zm20.767-1.966c.783 0 1.418-.633 1.419-1.417h.002c-.12-2.495-1.084-4.664-2.874-6.453-1.915-1.916-4.263-2.888-6.98-2.888-2.716 0-5.065.972-6.98 2.888-1.914 1.916-2.886 4.265-2.886 6.982 0 2.718.972 5.067 2.887 6.983 1.914 1.916 4.263 2.888 6.98 2.888 2.715 0 5.067-.974 6.987-2.896a9.85 9.85 0 0 0 2.107-3.065 1.267 1.267 0 1 0-2.317-1.026 7.32 7.32 0 0 1-1.585 2.31c-1.446 1.447-3.145 2.151-5.193 2.151-2.048 0-3.746-.704-5.192-2.15-1.232-1.232-1.924-2.647-2.102-4.306h15.727ZM24.686 8.809c1.446-1.447 3.144-2.15 5.192-2.15s3.747.703 5.193 2.15c1.043 1.044 1.697 2.214 1.982 3.558h-14.35c.286-1.344.94-2.514 1.983-3.558Zm93.761 6.081c.782 0 1.417-.633 1.418-1.417h.002c-.118-2.495-1.083-4.664-2.873-6.453-1.915-1.916-4.263-2.888-6.979-2.888-2.717 0-5.066.972-6.98 2.888-1.916 1.916-2.887 4.265-2.887 6.982 0 2.718.971 5.067 2.887 6.983 1.914 1.916 4.263 2.888 6.98 2.888 2.715 0 5.066-.974 6.986-2.896a9.855 9.855 0 0 0 2.109-3.065 1.267 1.267 0 1 0-2.319-1.026 7.317 7.317 0 0 1-1.584 2.31c-1.446 1.447-3.145 2.151-5.192 2.151-2.049 0-3.747-.704-5.193-2.15-1.232-1.232-1.924-2.647-2.102-4.306h15.727Zm-13.625-6.082c1.446-1.447 3.144-2.15 5.193-2.15 2.047 0 3.746.703 5.192 2.15 1.042 1.044 1.697 2.214 1.982 3.558h-14.35c.286-1.344.94-2.514 1.983-3.558Z"></path></svg>