<svg width="301" height="67" viewBox="0 0 301 67" fill="none" xmlns="http://www.w3.org/2000/svg">
<path d="M47.7651 7.18219V42.3154C47.7651 52.3215 39.6606 60.426 29.6646 60.426H27.5394V47.6439H29.6646C32.0136 47.6439 33.9254 45.7321 33.9254 43.3831V33.7939H21.1432V47.6439H7.30344V7.18219H21.1432V21.0219H33.9254V7.18219H47.7651Z" fill="white"/>
<path d="M0.917389 0.796143V54.0298H21.1431V66.812H29.6646C43.1891 66.812 54.1511 55.8399 54.1511 42.3154V0.796143H0.917389ZM47.7651 42.3154C47.7651 52.3215 39.6605 60.426 29.6646 60.426H27.5393V47.6438H29.6646C32.0136 47.6438 33.9253 45.7321 33.9253 43.3831V33.7939H21.1431V47.6438H7.3034V7.18215H21.1431V21.0219H33.9253V7.18215H47.7651V42.3154Z" fill="#006937"/>
<path d="M47.7651 7.18219V42.3154C47.7651 52.3215 39.6606 60.426 29.6646 60.426H27.5394V47.6439H29.6646C32.0136 47.6439 33.9254 45.7321 33.9254 43.3831V33.7939H21.1432V47.6439H7.30344V7.18219H21.1432V21.0219H33.9254V7.18219H47.7651Z" fill="white"/>
<path fill-rule="evenodd" clip-rule="evenodd" d="M73.3193 11.6767H79.746V24.1233H94.4806V11.6767H100.887V43.1491H94.4806V29.5026H79.746V43.1491H73.3193V11.6767Z" fill="#1D1D1B"/>
<path d="M113.476 11.6767H107.09V43.1491H113.476V11.6767Z" fill="#1D1D1B"/>
<path fill-rule="evenodd" clip-rule="evenodd" d="M119.679 11.6767H126.35L141.552 33.3667V11.6767H148.05V43.1491H141.288L126.085 21.4387V43.1491H119.679V11.6767Z" fill="#1D1D1B"/>
<path fill-rule="evenodd" clip-rule="evenodd" d="M181.403 15.846C184.576 18.8966 186.173 22.7608 186.173 27.4587C186.173 32.1567 184.596 36.031 181.454 39.1122C178.322 42.173 174.367 43.7085 169.597 43.7085C164.828 43.7085 160.842 42.173 157.669 39.1122C154.507 36.031 152.931 32.1466 152.931 27.4587C152.931 22.7709 154.507 18.8763 157.669 15.785C160.842 12.6936 164.818 11.148 169.597 11.148C174.377 11.148 178.302 12.714 181.414 15.8561L181.403 15.846ZM162.347 20.0152C160.496 21.9269 159.571 24.4081 159.571 27.4486C159.571 30.489 160.507 32.9804 162.357 34.9023C164.218 36.8039 166.618 37.7597 169.547 37.7597C172.475 37.7597 174.865 36.8039 176.726 34.9023C178.597 32.9804 179.532 30.489 179.532 27.4486C179.532 24.4081 178.597 21.9167 176.726 20.0152C174.865 18.0933 172.465 17.1272 169.547 17.1272C166.618 17.1272 164.218 18.0933 162.347 20.0152V20.0152Z" fill="#1D1D1B"/>
<path fill-rule="evenodd" clip-rule="evenodd" d="M233.508 15.846C236.681 18.8966 238.267 22.7608 238.267 27.4587C238.267 32.1567 236.691 36.031 233.549 39.1122C230.417 42.173 226.461 43.7085 221.692 43.7085C216.923 43.7085 212.947 42.173 209.774 39.1122C206.612 36.031 205.036 32.1466 205.036 27.4587C205.036 22.7709 206.622 18.8763 209.774 15.785C212.947 12.6936 216.923 11.148 221.692 11.148C226.461 11.148 230.407 12.714 233.508 15.8561V15.846ZM214.442 20.0152C212.591 21.9269 211.666 24.4081 211.666 27.4486C211.666 30.489 212.601 32.9804 214.462 34.9023C216.323 36.8039 218.723 37.7597 221.641 37.7597C224.56 37.7597 226.96 36.8039 228.821 34.9023C230.692 32.9804 231.637 30.489 231.637 27.4486C231.637 24.3979 230.692 21.9167 228.821 20.0152C226.96 18.0933 224.57 17.1272 221.641 17.1272C218.713 17.1272 216.313 18.0933 214.442 20.0152V20.0152Z" fill="#1D1D1B"/>
<path fill-rule="evenodd" clip-rule="evenodd" d="M253.958 11.1174C258.341 11.1174 262.205 12.4902 265.55 15.246L261.788 19.8016C260.629 18.7745 259.408 18.0424 258.107 17.5746C256.805 17.1069 255.453 16.8628 254.029 16.8628C252.402 16.8628 251.131 17.2187 250.195 17.9305C249.514 18.4796 249.179 19.1813 249.179 20.0355C249.179 20.971 249.616 21.7235 250.49 22.3031C251.172 22.7607 252.819 23.3607 255.432 24.103C258.514 24.8962 260.812 25.7707 262.327 26.7265C264.991 28.4857 266.313 30.9364 266.313 34.0684C266.313 36.936 265.072 39.3257 262.591 41.2171C260.344 42.8746 257.497 43.7084 254.039 43.7084C248.985 43.7084 244.613 41.9797 240.921 38.5122L244.511 33.9362C245.579 35.0141 246.941 35.9598 248.609 36.753C250.338 37.6275 252.148 38.0648 254.039 38.0648C255.809 38.0648 257.212 37.6885 258.249 36.936C259.174 36.1835 259.642 35.2988 259.642 34.2921C259.642 33.2854 259.164 32.4211 258.229 31.7804C257.527 31.3127 255.92 30.7127 253.399 30.0111C250.165 29.0755 247.887 28.2315 246.575 27.4587C243.84 25.8419 242.477 23.503 242.477 20.4422C242.477 17.6661 243.565 15.4087 245.731 13.6901C247.907 11.9716 250.653 11.1174 253.978 11.1174H253.958Z" fill="#1D1D1B"/>
<path fill-rule="evenodd" clip-rule="evenodd" d="M281.454 11.6767H287.312L300.917 43.1491H293.931L291.115 36.336H277.641L274.824 43.1491H267.838L281.444 11.6767H281.454ZM284.403 20.0049L279.817 30.9669H288.928L284.403 20.0049Z" fill="#1D1D1B"/>
<path fill-rule="evenodd" clip-rule="evenodd" d="M193.779 11.7275H200.206V32.6244C200.175 36.8343 198.996 39.6307 196.413 41.5323C194.694 42.8034 192.284 43.5152 187.942 43.4034L187.962 37.3224C189.701 37.4648 191.227 37.3428 192.437 36.2852C193.504 35.3395 193.759 34.343 193.779 32.8888V11.7275Z" fill="#1D1D1B"/>
</svg>