<?xml version="1.0" encoding="UTF-8"?>
<svg xmlns="http://www.w3.org/2000/svg" width="444.3" height="86.427" viewBox="0 0 444.3 86.427"><g id="Grupo_2" data-name="Grupo 2" transform="translate(-116.1 -76.492)"><rect id="Rectángulo_27" data-name="Rectángulo 27" width="86.4" height="86.4" transform="translate(116.1 76.492)" fill="#efa220"/><rect id="Rectángulo_28" data-name="Rectángulo 28" width="86.4" height="86.4" transform="translate(299.686 162.919) rotate(180)" fill="#ea8215"/><rect id="Rectángulo_29" data-name="Rectángulo 29" width="86.4" height="86.4" transform="translate(396.271 162.919) rotate(180)" fill="#e15200"/><path id="Unión_1" data-name="Unión 1" d="M18.743,56.2V38.263H0v-18.5H18.743V0h18.5V19.762H56.2v18.5H37.243V56.2Z" transform="translate(228.386 89.435)" fill="#fff"/><rect id="Rectángulo_31" data-name="Rectángulo 31" width="56.2" height="18.5" transform="translate(361.513 90.285) rotate(90)" fill="#fff"/><rect id="Rectángulo_32" data-name="Rectángulo 32" width="56.2" height="18.5" transform="translate(168.523 90.374) rotate(90)" fill="#fff"/><path id="Trazado_1" data-name="Trazado 1" d="M448.5,440.1h-19v-68h-28V353.7h75v18.4h-28Z" transform="translate(48.6 -277.208)" fill="#6e6e6e"/><rect id="Rectángulo_34" data-name="Rectángulo 34" width="19.1" height="86.4" transform="translate(414.7 76.492)" fill="#6e6e6e"/><rect id="Rectángulo_35" data-name="Rectángulo 35" width="19" height="86.4" transform="translate(541.4 76.492)" fill="#6e6e6e"/></g></svg>