<svg width="544" height="75" viewBox="0 0 544 75" fill="none" xmlns="http://www.w3.org/2000/svg">
<g clip-path="url(#clip0_429_117)">
<path d="M45.8894 48.4536H56.1366V57.0858C53.5739 57.6267 50.7901 58.164 46.8935 58.164C31.0787 58.164 23.1694 48.4536 23.1694 37.6615C23.1694 29.9986 28.0701 15.7544 49.4562 15.7544C62.2661 15.7544 70.0629 20.0705 74.5178 22.5534V5.28891C69.3887 3.66993 59.0328 0 43.8849 0C33.7501 0 23.0571 1.07815 12.2553 9.28194C3.45439 15.9721 0 27.6246 0 37.3385C0 63.6671 20.4944 75 42.6598 75C50.7901 75 58.1411 73.9219 63.8211 72.626C68.3883 71.5478 71.5056 70.4661 75.9604 68.8507V33.7809H45.8858V48.4571L45.8894 48.4536Z" fill="#1D1D1B"/>
<path d="M142.457 35.7193C142.457 50.8275 135.106 56.6537 125.417 56.6537C115.728 56.6537 108.264 50.7186 108.264 35.6105V0.972656H85.5443V41.3313C85.5443 67.66 108.598 74.9999 125.417 74.9999C142.235 74.9999 165.177 67.66 165.177 41.3313V0.972656H142.457V35.7193Z" fill="#1D1D1B"/>
<path d="M198.488 43.7054H230.118V29.0292H198.488V15.6453H231.676V0.972656H175.764V74.0271H232.568V59.3509H198.488V43.7054Z" fill="#1D1D1B"/>
<path d="M293.493 41.8688C296.614 40.3586 305.857 36.0425 305.857 23.6315C305.857 15.3223 299.51 0.969238 279.237 0.969238H240.59V74.0237H263.31V45.5352H265.872C272.665 45.5352 276.562 46.3991 283.246 61.0753L289.151 74.0237H313.542L305.966 58.1604C300.065 45.7494 297.723 44.3481 293.493 41.8652V41.8688ZM268.21 32.5903H263.31V15.0028H268.098C278.233 15.0028 282.688 17.2679 282.688 24.067C282.688 30.866 279.012 32.5903 268.207 32.5903H268.21Z" fill="#1D1D1B"/>
<path d="M353.421 0C323.905 0 310.653 18.5604 310.653 37.4438C310.653 56.3273 323.905 74.9965 353.421 74.9965C382.937 74.9965 396.19 57.5143 396.19 37.4438C396.19 17.3733 382.155 0 353.421 0ZM353.421 56.2219C341.057 56.2219 333.815 48.4536 333.815 37.4438C333.815 26.434 341.057 18.7746 353.421 18.7746C365.785 18.7746 373.024 26.6518 373.024 37.4438C373.024 48.2359 366.006 56.2219 353.421 56.2219Z" fill="#1D1D1B"/>
<path d="M510.804 0.972656H485.631L460.297 56.5484H425.818V0.972656H403.098V74.0271H475.612L481.846 59.242H514.592L520.718 74.0271H544L510.804 0.972656ZM487.193 46.5114L498.332 19.8561L509.355 46.5114H487.189H487.193Z" fill="#1D1D1B"/>
</g>
<defs>
<clipPath id="clip0_429_117">
<rect width="544" height="75" fill="white"/>
</clipPath>
</defs>
</svg>