<?xml version="1.0" encoding="UTF-8" standalone="no"?>
<!-- Created with Inkscape (http://www.inkscape.org/) -->

<svg
   width="186.06181mm"
   height="45.715164mm"
   viewBox="0 0 186.06181 45.715164"
   version="1.1"
   id="svg12385"
   inkscape:version="1.1.2 (0a00cf5339, 2022-02-04)"
   xmlns:inkscape="http://www.inkscape.org/namespaces/inkscape"
   xmlns:sodipodi="http://sodipodi.sourceforge.net/DTD/sodipodi-0.dtd"
   xmlns="http://www.w3.org/2000/svg"
   xmlns:svg="http://www.w3.org/2000/svg">
  <sodipodi:namedview
     id="namedview12387"
     pagecolor="#ffffff"
     bordercolor="#666666"
     borderopacity="1.0"
     inkscape:pageshadow="2"
     inkscape:pageopacity="0.0"
     inkscape:pagecheckerboard="0"
     inkscape:document-units="mm"
     showgrid="false"
     fit-margin-top="0"
     fit-margin-left="0"
     fit-margin-right="0"
     fit-margin-bottom="0"
     inkscape:zoom="0.69664703"
     inkscape:cx="358.14407"
     inkscape:cy="472.26212"
     inkscape:window-width="1920"
     inkscape:window-height="1043"
     inkscape:window-x="0"
     inkscape:window-y="0"
     inkscape:window-maximized="1"
     inkscape:current-layer="layer1" />
  <defs
     id="defs12382" />
  <g
     inkscape:label="Capa 1"
     inkscape:groupmode="layer"
     id="layer1"
     transform="translate(-10.067224,-23.412166)">
    <g
       id="g12613"
       transform="matrix(2.1629728,0,0,2.1629728,-20.94643,-209.21266)">
      <path
         d="m 68.779457,108.17033 h 4.2291 v 5.22287 h -4.2291 z"
         style="fill:#cacaca;fill-opacity:1;fill-rule:nonzero;stroke:none;stroke-width:0.352778"
         id="path11806" />
      <path
         d="m 14.46685,114.05995 c -0.01658,-0.15134 0.0039,-1.15605 0.02469,-1.18921 0.01658,-0.0261 1.667581,-0.0399 4.826,-0.0399 2.640189,0.001 4.808008,-0.006 4.816122,-0.0152 0.0095,-0.008 0.01517,-1.19733 0.01376,-2.6416 l -0.0014,-2.62538 h 63.575846 l 0.0042,2.57034 c 0.0014,1.41358 0.0067,2.60315 0.0095,2.6416 0.0056,0.0688 0.281164,0.0716 6.104819,0.0702 l 6.097764,-0.003 -0.02223,1.26506 -42.721741,0.003 c -28.453644,0.003 -42.723505,-0.01 -42.727385,-0.037 z m 53.78344,-3.2452 v -1.97591 H 25.477397 v 3.95076 H 68.25029 Z m 4.252384,1.84538 c 0.0127,-0.073 0.01799,-0.94827 0.01129,-1.94592 l -0.01129,-1.81469 -1.4605,-0.01 -1.462264,-0.0109 v 1.92934 c 0,1.05974 0.01094,1.93886 0.02505,1.95262 0.01376,0.0138 0.66675,0.0261 1.449564,0.0275 l 1.424869,0.004 z m 13.928019,-1.84538 v -1.97591 H 73.85346 v 3.95076 h 12.577233 z"
         style="fill:#000000;fill-opacity:1;fill-rule:nonzero;stroke:none;stroke-width:0.352778"
         id="path11808" />
      <path
         d="m 14.338439,115.91627 h 0.352777 v 1.79705 h -0.352777 z"
         style="fill:#000000;fill-opacity:1;fill-rule:nonzero;stroke:none;stroke-width:0.352778"
         id="path11810" />
      <path
         d="m 19.372577,117.71332 h -1.863019 v -1.79705 h 1.846439 v 0.27552 h -1.493661 v 0.44662 h 1.019528 v 0.28116 h -1.019528 v 0.50165 h 1.510241 z"
         style="fill:#000000;fill-opacity:1;fill-rule:nonzero;stroke:none;stroke-width:0.352778"
         id="path11812" />
      <path
         d="m 23.619669,117.71332 h -1.52153 v -0.2921 h 1.499305 c 0.03598,0 0.06068,-0.003 0.07197,-0.0109 0.01094,-0.0113 0.01623,-0.0303 0.01623,-0.0607 v -0.36407 c 0,-0.0247 -0.0053,-0.0441 -0.01623,-0.055 -0.01129,-0.0109 -0.03598,-0.0166 -0.07197,-0.0166 h -1.080205 c -0.162631,0 -0.272698,-0.0247 -0.330906,-0.0769 -0.05927,-0.0511 -0.08819,-0.14605 -0.08819,-0.28681 v -0.27552 c 0,-0.13511 0.02893,-0.22895 0.08819,-0.28116 0.05821,-0.0512 0.168275,-0.0773 0.330906,-0.0773 h 1.427691 v 0.27023 h -1.411111 c -0.03739,0 -0.06068,0.005 -0.07161,0.0166 -0.01129,0.008 -0.01658,0.0261 -0.01658,0.055 v 0.31433 c 0,0.0303 0.0053,0.0494 0.01658,0.0603 0.01094,0.008 0.03422,0.0113 0.07161,0.0113 h 1.08585 c 0.161219,0 0.271286,0.0247 0.330553,0.0716 0.05821,0.0483 0.08819,0.14041 0.08819,0.27552 v 0.35843 c 0,0.1404 -0.02999,0.23565 -0.08819,0.28645 -0.05927,0.0526 -0.169334,0.0773 -0.330553,0.0773 z"
         style="fill:#000000;fill-opacity:1;fill-rule:nonzero;stroke:none;stroke-width:0.352778"
         id="path11814" />
      <path
         d="m 31.751549,117.71332 h -1.565627 v -1.79705 h 1.565627 c 0.16122,0 0.271287,0.0275 0.330553,0.0829 0.05786,0.055 0.08819,0.1651 0.08819,0.33056 v 0.97578 c 0,0.16263 -0.03034,0.26987 -0.08819,0.32526 -0.05927,0.055 -0.169333,0.0825 -0.330553,0.0825 z m 0.06597,-0.36371 v -1.08585 c 0,-0.0289 -0.0053,-0.0469 -0.01658,-0.0554 -0.01094,-0.0109 -0.03563,-0.0166 -0.07161,-0.0166 h -1.190625 v 1.22943 h 1.190625 c 0.03316,0 0.05539,-0.003 0.06632,-0.0109 0.01376,-0.0113 0.02187,-0.0303 0.02187,-0.0607 z"
         style="fill:#000000;fill-opacity:1;fill-rule:nonzero;stroke:none;stroke-width:0.352778"
         id="path11816" />
      <path
         d="m 37.063677,117.71332 h -0.435328 l -0.606425,-0.70556 h -0.705555 v 0.70556 h -0.347134 v -1.79705 h 1.510242 c 0.156986,0 0.265995,0.0251 0.325261,0.0716 0.05786,0.0483 0.08819,0.13794 0.08819,0.27023 v 0.40252 c 0,0.14041 -0.03316,0.23425 -0.09913,0.28081 -0.0635,0.0441 -0.180622,0.0663 -0.352778,0.0663 z m -0.523522,-1.05269 v -0.40252 c 0,-0.0289 -0.0056,-0.0469 -0.01658,-0.055 -0.01094,-0.0113 -0.03563,-0.0166 -0.07161,-0.0166 h -1.135591 v 0.54574 h 1.135591 c 0.03316,0 0.05503,-0.003 0.06597,-0.0113 0.01411,-0.0109 0.02222,-0.03 0.02222,-0.0603 z"
         style="fill:#000000;fill-opacity:1;fill-rule:nonzero;stroke:none;stroke-width:0.352778"
         id="path11818" />
      <path
         d="m 39.634016,117.39899 h 0.37465 v 0.31433 h -0.37465 z"
         style="fill:#000000;fill-opacity:1;fill-rule:nonzero;stroke:none;stroke-width:0.352778"
         id="path11820" />
      <path
         d="m 47.80576,117.71332 h -1.742016 v -1.79705 h 0.352777 v 1.50495 h 1.389239 z"
         style="fill:#000000;fill-opacity:1;fill-rule:nonzero;stroke:none;stroke-width:0.352778"
         id="path11822" />
      <path
         d="m 52.18091,117.71332 h -1.742017 v -1.79705 h 0.352778 v 1.50495 h 1.389239 z"
         style="fill:#000000;fill-opacity:1;fill-rule:nonzero;stroke:none;stroke-width:0.352778"
         id="path11824" />
      <path
         d="m 56.385316,117.72426 h -1.157464 c -0.165453,0 -0.278342,-0.0275 -0.336198,-0.0825 -0.05927,-0.055 -0.08819,-0.16263 -0.08819,-0.32527 v -1.40017 h 0.358069 v 1.44992 c 0,0.0261 0.0056,0.0441 0.01658,0.055 0.01094,0.008 0.03457,0.0109 0.07161,0.0109 h 1.113367 c 0.03598,0 0.06068,-0.003 0.07161,-0.0109 0.01129,-0.007 0.01658,-0.0247 0.01658,-0.055 v -1.44992 h 0.352778 v 1.40017 c 0,0.16264 -0.03034,0.27023 -0.08819,0.32527 -0.05503,0.055 -0.1651,0.0825 -0.330552,0.0825 z"
         style="fill:#000000;fill-opacity:1;fill-rule:nonzero;stroke:none;stroke-width:0.352778"
         id="path11826" />
      <path
         d="m 59.965304,117.71332 h -0.352777 v -1.79705 h 0.352777 z m -0.05503,-1.95686 h -0.248003 l 0.281164,-0.41875 h 0.313972 z"
         style="fill:#000000;fill-opacity:1;fill-rule:nonzero;stroke:none;stroke-width:0.352778"
         id="path11828" />
      <path
         d="m 64.277307,117.71332 h -1.52153 v -0.2921 h 1.499305 c 0.03598,0 0.06068,-0.003 0.07197,-0.0109 0.01094,-0.0113 0.01623,-0.0303 0.01623,-0.0607 v -0.36407 c 0,-0.0247 -0.0053,-0.0441 -0.01623,-0.055 -0.01129,-0.0109 -0.03598,-0.0166 -0.07197,-0.0166 h -1.080205 c -0.162631,0 -0.272698,-0.0247 -0.330906,-0.0769 -0.05927,-0.0511 -0.08819,-0.14605 -0.08819,-0.28681 v -0.27552 c 0,-0.13511 0.02893,-0.22895 0.08819,-0.28116 0.05821,-0.0512 0.168275,-0.0773 0.330906,-0.0773 h 1.427691 v 0.27023 h -1.411111 c -0.03739,0 -0.06068,0.005 -0.07161,0.0166 -0.01129,0.008 -0.01658,0.0261 -0.01658,0.055 v 0.31433 c 0,0.0303 0.0053,0.0494 0.01658,0.0603 0.01094,0.008 0.03422,0.0113 0.07161,0.0113 h 1.08585 c 0.161219,0 0.271286,0.0247 0.330553,0.0716 0.05821,0.0483 0.08819,0.14041 0.08819,0.27552 v 0.35843 c 0,0.1404 -0.02999,0.23565 -0.08819,0.28645 -0.05927,0.0526 -0.169334,0.0773 -0.330553,0.0773 z"
         style="fill:#000000;fill-opacity:1;fill-rule:nonzero;stroke:none;stroke-width:0.352778"
         id="path11830" />
      <path
         d="m 72.337574,117.71332 h -1.521531 v -0.2921 h 1.499306 c 0.03598,0 0.06068,-0.003 0.07161,-0.0109 0.01094,-0.0113 0.01658,-0.0303 0.01658,-0.0607 v -0.36407 c 0,-0.0247 -0.0056,-0.0441 -0.01658,-0.055 -0.01094,-0.0109 -0.03563,-0.0166 -0.07161,-0.0166 h -1.080206 c -0.162631,0 -0.27305,-0.0247 -0.330906,-0.0769 -0.05927,-0.0511 -0.08819,-0.14605 -0.08819,-0.28681 v -0.27552 c 0,-0.13511 0.02893,-0.22895 0.08819,-0.28116 0.05786,-0.0512 0.168275,-0.0773 0.330906,-0.0773 h 1.427339 v 0.27023 h -1.411111 c -0.03704,0 -0.06033,0.005 -0.07161,0.0166 -0.01094,0.008 -0.01658,0.0261 -0.01658,0.055 v 0.31433 c 0,0.0303 0.0056,0.0494 0.01658,0.0603 0.01129,0.008 0.03457,0.0113 0.07161,0.0113 h 1.086203 c 0.161219,0 0.271286,0.0247 0.330552,0.0716 0.05786,0.0483 0.08819,0.14041 0.08819,0.27552 v 0.35843 c 0,0.1404 -0.03034,0.23565 -0.08819,0.28645 -0.05927,0.0526 -0.169333,0.0773 -0.330552,0.0773 z"
         style="fill:#000000;fill-opacity:1;fill-rule:nonzero;stroke:none;stroke-width:0.352778"
         id="path11832" />
      <path
         d="m 75.531623,115.91627 h 0.352778 v 1.79705 h -0.352778 z"
         style="fill:#000000;fill-opacity:1;fill-rule:nonzero;stroke:none;stroke-width:0.352778"
         id="path11834" />
      <path
         d="m 81.116801,117.71332 h -0.352778 v -1.0474 c 0,-0.0797 0.0028,-0.19297 0.01129,-0.33619 h -0.0056 c -0.02222,0.0413 -0.07444,0.11994 -0.154517,0.23706 l -0.66675,0.90946 h -0.07726 l -0.667103,-0.90946 c -0.07408,-0.10195 -0.126647,-0.18203 -0.159808,-0.23706 0.0071,0.11853 0.01129,0.23001 0.01129,0.33619 v 1.0474 h -0.352778 v -1.79705 h 0.402166 l 0.573264,0.80469 0.237067,0.33655 0.237067,-0.34185 0.573264,-0.79939 h 0.39123 z"
         style="fill:#000000;fill-opacity:1;fill-rule:nonzero;stroke:none;stroke-width:0.352778"
         id="path11836" />
      <path
         d="m 86.171401,117.71332 h -0.402167 l -0.220486,-0.38594 h -1.223786 l -0.214841,0.38594 h -0.391584 l 1.047397,-1.79705 h 0.358423 z m -1.234722,-1.46085 -0.468489,0.81033 h 0.93733 l -0.463197,-0.81033 z"
         style="fill:#000000;fill-opacity:1;fill-rule:nonzero;stroke:none;stroke-width:0.352778"
         id="path11838" />
      <path
         d="m 90.872165,117.71332 h -0.435681 l -0.606072,-0.70556 h -0.705555 v 0.70556 H 88.77737 v -1.79705 h 1.510242 c 0.157339,0 0.265994,0.0251 0.325261,0.0716 0.05786,0.0483 0.0882,0.13794 0.0882,0.27023 v 0.40252 c 0,0.14041 -0.03281,0.23425 -0.09913,0.28081 -0.0635,0.0441 -0.180622,0.0663 -0.352778,0.0663 z m -0.523875,-1.05269 v -0.40252 c 0,-0.0289 -0.0053,-0.0469 -0.01658,-0.055 -0.01094,-0.0113 -0.03563,-0.0166 -0.07161,-0.0166 h -1.135238 v 0.54574 H 90.2601 c 0.03316,0 0.05539,-0.003 0.06632,-0.0113 0.01376,-0.0109 0.02187,-0.03 0.02187,-0.0603 z"
         style="fill:#000000;fill-opacity:1;fill-rule:nonzero;stroke:none;stroke-width:0.352778"
         id="path11840" />
      <path
         d="m 95.573987,117.71332 h -0.435681 l -0.606072,-0.70556 h -0.705555 v 0.70556 h -0.347486 v -1.79705 h 1.510594 c 0.156986,0 0.265642,0.0251 0.324908,0.0716 0.05821,0.0483 0.08819,0.13794 0.08819,0.27023 v 0.40252 c 0,0.14041 -0.03281,0.23425 -0.09913,0.28081 -0.0635,0.0441 -0.180622,0.0663 -0.352778,0.0663 z m -0.523875,-1.05269 v -0.40252 c 0,-0.0289 -0.0053,-0.0469 -0.01623,-0.055 -0.01129,-0.0113 -0.03598,-0.0166 -0.07197,-0.0166 h -1.135238 v 0.54574 h 1.135238 c 0.03316,0 0.05539,-0.003 0.06632,-0.0113 0.01376,-0.0109 0.02187,-0.03 0.02187,-0.0603 z"
         style="fill:#000000;fill-opacity:1;fill-rule:nonzero;stroke:none;stroke-width:0.352778"
         id="path11842" />
      <path
         d="M 99.935378,117.72426 H 98.59059 c -0.165453,0 -0.278342,-0.0275 -0.33655,-0.0825 -0.05891,-0.055 -0.08819,-0.16263 -0.08819,-0.32527 v -1.0033 c 0,-0.16121 0.02928,-0.26987 0.08819,-0.32526 0.05821,-0.0579 0.171097,-0.0882 0.33655,-0.0882 h 1.344788 c 0.165452,0 0.276932,0.0303 0.336202,0.0882 0.0579,0.0554 0.0882,0.16405 0.0882,0.32526 v 1.0033 c 0,0.16264 -0.0303,0.27023 -0.0882,0.32527 -0.0593,0.055 -0.17075,0.0825 -0.336202,0.0825 z m 0.07161,-0.35807 v -1.11372 c 0,-0.0289 -0.0081,-0.0466 -0.02187,-0.055 -0.01129,-0.0109 -0.03316,-0.0166 -0.06632,-0.0166 h -1.311981 c -0.03281,0 -0.05786,0.006 -0.07161,0.0166 -0.01094,0.008 -0.01658,0.0261 -0.01658,0.055 v 1.11372 c 0,0.0261 0.0056,0.0441 0.01658,0.055 0.01376,0.008 0.03881,0.0109 0.07161,0.0109 h 1.311981 c 0.03316,0 0.05503,-0.003 0.06632,-0.0109 0.01376,-0.0109 0.02187,-0.0289 0.02187,-0.055 z"
         style="fill:#000000;fill-opacity:1;fill-rule:nonzero;stroke:none;stroke-width:0.352778"
         id="path11844" />
      <path
         d="m 30.210969,123.94196 h -1.301045 v -1.26788 h 1.284464 v 0.16545 H 29.11383 v 0.35843 h 0.749653 v 0.17074 H 29.11383 v 0.39688 h 1.097139 z"
         style="fill:#000000;fill-opacity:1;fill-rule:nonzero;stroke:none;stroke-width:0.352778"
         id="path11846" />
      <path
         d="M 33.534488,123.94196 H 33.37468 l -0.970139,-0.85442 c -0.06315,-0.055 -0.118533,-0.10725 -0.1651,-0.15981 h -0.0056 c 0.0028,0.0744 0.0056,0.16827 0.0056,0.28116 v 0.73307 h -0.204258 v -1.26788 h 0.165453 l 0.975783,0.86007 c 0.0508,0.0483 0.104775,0.0977 0.159808,0.14888 h 0.0056 c -0.0085,-0.0469 -0.01129,-0.14323 -0.01129,-0.28681 v -0.72214 h 0.203905 z"
         style="fill:#000000;fill-opacity:1;fill-rule:nonzero;stroke:none;stroke-width:0.352778"
         id="path11848" />
      <path
         d="m 36.456194,123.94196 h -1.069622 v -0.17638 h 1.069622 c 0.03281,0 0.05221,-0.003 0.06068,-0.0109 0.01094,-0.007 0.01623,-0.0233 0.01623,-0.0497 v -0.27552 c 0,-0.0247 -0.0053,-0.0413 -0.01623,-0.0497 -0.0085,-0.0109 -0.02787,-0.0162 -0.06068,-0.0162 h -0.788459 c -0.107244,0 -0.180269,-0.0166 -0.220486,-0.0497 -0.04127,-0.036 -0.06068,-0.10054 -0.06068,-0.19297 v -0.20391 c 0,-0.091 0.0194,-0.15451 0.06068,-0.18732 0.04022,-0.036 0.113242,-0.0554 0.220486,-0.0554 h 1.0033 v 0.16016 H 35.67338 c -0.03316,0 -0.05503,0.005 -0.06632,0.0162 -0.01094,0.008 -0.01623,0.025 -0.01623,0.0497 v 0.23707 c 0,0.0261 0.0053,0.0427 0.01623,0.0497 0.01129,0.008 0.03316,0.0109 0.06632,0.0109 h 0.782814 c 0.110066,0 0.184503,0.0166 0.225778,0.0494 0.04022,0.0332 0.06068,0.0981 0.06068,0.19297 v 0.2593 c 0,0.0963 -0.02187,0.1598 -0.06597,0.19297 -0.04127,0.0328 -0.114653,0.0494 -0.220486,0.0494 z"
         style="fill:#000000;fill-opacity:1;fill-rule:nonzero;stroke:none;stroke-width:0.352778"
         id="path11850" />
      <path
         d="m 39.882019,123.94196 h -1.301045 v -1.26788 h 1.284464 v 0.16545 H 38.78488 v 0.35843 h 0.749653 v 0.17074 H 38.78488 v 0.39688 h 1.097139 z"
         style="fill:#000000;fill-opacity:1;fill-rule:nonzero;stroke:none;stroke-width:0.352778"
         id="path11852" />
      <path
         d="M 43.205538,123.94196 H 43.04573 l -0.970139,-0.85442 c -0.06315,-0.055 -0.118533,-0.10725 -0.1651,-0.15981 h -0.0056 c 0.0028,0.0744 0.0056,0.16827 0.0056,0.28116 v 0.73307 h -0.204258 v -1.26788 h 0.165452 l 0.975784,0.86007 c 0.0508,0.0483 0.104775,0.0977 0.159808,0.14888 h 0.0056 c -0.0085,-0.0469 -0.01129,-0.14323 -0.01129,-0.28681 v -0.72214 h 0.203905 z"
         style="fill:#000000;fill-opacity:1;fill-rule:nonzero;stroke:none;stroke-width:0.352778"
         id="path11854" />
      <path
         d="m 45.806216,123.94196 h -0.204259 v -0.57326 l -0.68333,-0.69462 h 0.275519 l 0.380295,0.39158 0.132291,0.14323 c 0.01129,-0.0138 0.05644,-0.0621 0.137937,-0.14323 l 0.380294,-0.39158 h 0.270228 l -0.688975,0.69462 z"
         style="fill:#000000;fill-opacity:1;fill-rule:nonzero;stroke:none;stroke-width:0.352778"
         id="path11856" />
      <path
         d="m 49.474399,123.94196 h -0.231422 l -0.171097,-0.28645 h -0.909461 l -0.170745,0.28645 h -0.22613 l 0.755297,-1.26788 h 0.198261 z m -0.859719,-1.06927 -0.364067,0.61737 h 0.72778 z"
         style="fill:#000000;fill-opacity:1;fill-rule:nonzero;stroke:none;stroke-width:0.352778"
         id="path11858" />
      <path
         d="m 52.872707,123.94196 h -0.203905 v -0.8322 c 0,-0.0688 0.0014,-0.1337 0.0053,-0.19297 h -0.0053 c -0.0194,0.0303 -0.04974,0.0758 -0.09384,0.13794 l -0.518231,0.69991 h -0.05503 l -0.518231,-0.69991 c -0.03034,-0.0402 -0.06068,-0.0857 -0.09349,-0.13794 h -0.0056 c 0.0028,0.055 0.0056,0.11995 0.0056,0.19297 v 0.8322 h -0.203905 v -1.26788 h 0.236714 l 0.446616,0.60643 0.165453,0.23142 c 0.01376,-0.0219 0.06879,-0.10054 0.165453,-0.23672 l 0.440972,-0.60113 h 0.231422 z"
         style="fill:#000000;fill-opacity:1;fill-rule:nonzero;stroke:none;stroke-width:0.352778"
         id="path11860" />
      <path
         d="m 56.044885,123.94196 h -1.300692 v -1.26788 h 1.284111 v 0.16545 h -1.080205 v 0.35843 h 0.749653 v 0.17074 h -0.749653 v 0.39688 h 1.096786 z"
         style="fill:#000000;fill-opacity:1;fill-rule:nonzero;stroke:none;stroke-width:0.352778"
         id="path11862" />
      <path
         d="m 59.368757,123.94196 h -0.159808 l -0.970139,-0.85442 c -0.0635,-0.055 -0.118533,-0.10725 -0.165453,-0.15981 h -0.0056 c 0.0028,0.0744 0.0056,0.16827 0.0056,0.28116 v 0.73307 h -0.203905 v -1.26788 h 0.165452 l 0.975431,0.86007 c 0.05115,0.0483 0.104775,0.0977 0.159808,0.14888 h 0.0056 c -0.0081,-0.0469 -0.01094,-0.14323 -0.01094,-0.28681 v -0.72214 h 0.203905 z"
         style="fill:#000000;fill-opacity:1;fill-rule:nonzero;stroke:none;stroke-width:0.352778"
         id="path11864" />
      <path
         d="m 61.933099,123.94196 h -0.203906 v -1.10243 H 61.10654 v -0.16545 h 1.449564 v 0.16545 h -0.623005 z"
         style="fill:#000000;fill-opacity:1;fill-rule:nonzero;stroke:none;stroke-width:0.352778"
         id="path11866" />
      <path
         d="m 67.610704,123.43502 h -0.871008 v 0.50694 H 66.53579 v -1.26788 h 1.069623 c 0.101952,0 0.172155,0.0166 0.209197,0.0497 0.03598,0.0332 0.05539,0.0967 0.05539,0.18733 v 0.28116 c 0,0.0924 -0.0194,0.15734 -0.05539,0.19297 -0.03281,0.0332 -0.101953,0.0497 -0.203906,0.0497 z m 0.05503,-0.22613 v -0.30868 c 0,-0.0247 -0.0053,-0.0413 -0.01623,-0.0497 -0.0085,-0.0109 -0.02787,-0.0162 -0.06068,-0.0162 h -0.849136 v 0.43533 h 0.849136 c 0.03281,0 0.05221,-0.003 0.06068,-0.0109 0.01094,-0.007 0.01623,-0.0236 0.01623,-0.0497 z"
         style="fill:#000000;fill-opacity:1;fill-rule:nonzero;stroke:none;stroke-width:0.352778"
         id="path11868" />
      <path
         d="m 70.820276,123.9529 h -0.826911 c -0.1143,0 -0.191558,-0.0176 -0.231422,-0.055 -0.03739,-0.0356 -0.05503,-0.11148 -0.05503,-0.22578 v -0.99801 h 0.203905 v 1.04211 c 0,0.0261 0.0053,0.0427 0.01658,0.0494 0.01094,0.008 0.03281,0.0109 0.06597,0.0109 h 0.821267 c 0.03316,0 0.05503,-0.002 0.06632,-0.0109 0.01094,-0.007 0.01658,-0.0233 0.01658,-0.0494 v -1.04211 h 0.198261 v 0.99801 c 0,0.11007 -0.02081,0.18591 -0.06068,0.22578 -0.03704,0.0374 -0.108656,0.055 -0.214842,0.055 z m -0.347486,-1.38889 h -0.154164 l 0.19297,-0.2868 h 0.187325 z"
         style="fill:#000000;fill-opacity:1;fill-rule:nonzero;stroke:none;stroke-width:0.352778"
         id="path11870" />
      <path
         d="M 74.006212,123.94196 H 72.96446 v -1.26788 h 1.063977 c 0.09913,0 0.166511,0.0152 0.203906,0.0441 0.03563,0.0303 0.05503,0.091 0.05503,0.18203 v 0.20955 c 0,0.0593 -0.01376,0.10195 -0.03845,0.12665 -0.02223,0.0222 -0.05256,0.0388 -0.08819,0.0497 0.08819,0.0109 0.132292,0.0716 0.132292,0.18168 v 0.23178 c 0,0.0921 -0.02222,0.15698 -0.06632,0.19297 -0.04127,0.0328 -0.1143,0.0494 -0.220486,0.0494 z m 0.08255,-0.23706 v -0.27552 c 0,-0.0247 -0.0053,-0.0413 -0.01623,-0.0497 -0.01129,-0.0109 -0.03316,-0.0162 -0.06632,-0.0162 h -0.837847 v 0.40781 h 0.837847 c 0.03316,0 0.05503,-0.003 0.06632,-0.0109 0.01094,-0.0113 0.01623,-0.0289 0.01623,-0.0554 z m -0.0053,-0.56762 v -0.23707 c 0,-0.0289 -0.0056,-0.0469 -0.01658,-0.055 -0.0081,-0.007 -0.02752,-0.0109 -0.06068,-0.0109 h -0.837847 v 0.36901 h 0.837847 c 0.03316,0 0.05256,-0.002 0.06068,-0.0109 0.01094,-0.0109 0.01658,-0.0289 0.01658,-0.055 z"
         style="fill:#000000;fill-opacity:1;fill-rule:nonzero;stroke:none;stroke-width:0.352778"
         id="path11872" />
      <path
         d="m 77.368537,123.94196 h -1.218141 v -1.26788 h 0.203905 v 1.0915 h 1.014236 z"
         style="fill:#000000;fill-opacity:1;fill-rule:nonzero;stroke:none;stroke-width:0.352778"
         id="path11874" />
      <path
         d="m 79.102087,122.67408 h 0.203906 v 1.26788 h -0.203906 z"
         style="fill:#000000;fill-opacity:1;fill-rule:nonzero;stroke:none;stroke-width:0.352778"
         id="path11876" />
      <path
         d="m 82.496515,123.94196 h -1.042106 c -0.107244,0 -0.180269,-0.018 -0.220486,-0.055 -0.04127,-0.036 -0.06033,-0.11148 -0.06033,-0.22613 v -0.70556 c 0,-0.11006 0.01764,-0.18309 0.05503,-0.22048 0.03986,-0.0399 0.115711,-0.0607 0.225777,-0.0607 h 1.042106 v 0.16545 h -1.036461 c -0.03316,0 -0.05503,0.004 -0.06632,0.0109 -0.01094,0.008 -0.01623,0.025 -0.01623,0.0497 v 0.80469 c 0,0.0265 0.0053,0.0427 0.01623,0.0497 0.01129,0.008 0.03316,0.0109 0.06632,0.0109 h 1.036461 z"
         style="fill:#000000;fill-opacity:1;fill-rule:nonzero;stroke:none;stroke-width:0.352778"
         id="path11878" />
      <path
         d="m 47.791649,128.684 h -0.280811 l -0.534811,-0.54045 -0.540103,0.54045 h -0.270228 l 0.678039,-0.65616 -0.633941,-0.61737 h 0.281163 l 0.496006,0.49601 0.507294,-0.49601 h 0.269875 l -0.644877,0.61737 z"
         style="fill:#333333;fill-opacity:1;fill-rule:nonzero;stroke:none;stroke-width:0.352778"
         id="path11880" />
      <path
         d="m 52.273338,128.684 h -0.237067 l -0.165453,-0.2921 h -0.915105 l -0.170745,0.2921 h -0.22613 l 0.755297,-1.27353 h 0.198261 z m -0.860072,-1.06962 -0.369359,0.61736 h 0.733073 z m 0.08255,-0.31397 H 51.336007 L 51.11023,127.0136 h 0.192969 z"
         style="fill:#333333;fill-opacity:1;fill-rule:nonzero;stroke:none;stroke-width:0.352778"
         id="path11882" />
      <path
         d="m 55.700221,128.684 h -0.209197 v -1.10807 h -0.623006 v -0.16546 h 1.455209 v 0.16546 h -0.623006 z"
         style="fill:#333333;fill-opacity:1;fill-rule:nonzero;stroke:none;stroke-width:0.352778"
         id="path11884" />
      <path
         d="m 59.250224,127.41047 h 0.20955 v 1.27318 h -0.20955 z"
         style="fill:#333333;fill-opacity:1;fill-rule:nonzero;stroke:none;stroke-width:0.352778"
         id="path11886" />
      <path
         d="m 63.257427,128.684 h -0.148873 l -0.733072,-1.27353 h 0.231775 l 0.462845,0.81598 c 0.02893,0.0522 0.06632,0.12382 0.110419,0.21484 h 0.0053 c 0.03316,-0.0621 0.07161,-0.13229 0.115711,-0.20955 l 0.463197,-0.82127 h 0.225778 z"
         style="fill:#333333;fill-opacity:1;fill-rule:nonzero;stroke:none;stroke-width:0.352778"
         id="path11888" />
      <path
         d="m 68.25276,128.684 h -0.236714 l -0.165453,-0.2921 h -0.915105 l -0.170745,0.2921 h -0.22613 l 0.755297,-1.27353 h 0.198261 z m -0.85972,-1.06962 -0.369358,0.61736 h 0.733072 z"
         style="fill:#333333;fill-opacity:1;fill-rule:nonzero;stroke:none;stroke-width:0.352778"
         id="path11890" />
    </g>
  </g>
</svg>
