<?xml version="1.0" encoding="UTF-8"?>
<svg id="Capa_2" data-name="Capa 2" xmlns="http://www.w3.org/2000/svg" xmlns:xlink="http://www.w3.org/1999/xlink" viewBox="0 0 72.71 36.9">
  <defs>
    <clipPath id="clippath">
      <rect width="72.71" height="27.26" fill="none" stroke-width="0"/>
    </clipPath>
    <clipPath id="clippath-1">
      <rect width="72.71" height="36.9" fill="none" stroke-width="0"/>
    </clipPath>
  </defs>
  <g id="Capa_1-2" data-name="Capa 1">
    <g>
      <g id="Grupo_306" data-name="Grupo 306">
        <g clip-path="url(#clippath)">
          <g id="Grupo_305" data-name="Grupo 305">
            <path id="Trazado_2553" data-name="Trazado 2553" d="M0,13.63C0,6.1,6.1,0,13.63,0h45.44c7.53,0,13.63,6.1,13.63,13.63s-6.1,13.63-13.63,13.63H13.63C6.1,27.27,0,21.16,0,13.63c0,0,0,0,0,0" fill="#033da5" stroke-width="0"/>
            <path id="Trazado_2554" data-name="Trazado 2554" d="M62.21,16.33l1.95,1.41c-1.34,1.71-3.4,2.7-5.57,2.68-3.38.07-6.31-2.32-6.91-5.65h-2.28v-2.28h2.29c.6-3.33,3.53-5.73,6.91-5.65,2.17-.02,4.23.97,5.57,2.68l-1.99,1.49c-.8-1.19-2.14-1.91-3.57-1.89-2.49.04-4.48,2.09-4.44,4.58.04,2.44,2,4.41,4.44,4.44,1.42,0,2.77-.66,3.61-1.81M23.95,14.79h-2.92c-.53,3.83-4.06,6.49-7.88,5.96-3.82-.53-6.48-4.06-5.95-7.88.46-3.31,3.2-5.82,6.53-6.01.13,0,.27,0,.4,0,3.38-.07,6.31,2.32,6.91,5.65h2.92v-5.39h5.51c3.91,0,6.39,2.42,6.9,5.37h2.99v-5.36h10.01v2.29h-7.6v3.07h5.36v2.29h-5.37v3.13h7.6v2.29h-10.01v-5.41h-2.99c-.63,3.28-3.58,5.58-6.9,5.4h-5.51v-5.38ZM26.36,9.41v8.48h3.1c2.34.19,4.39-1.55,4.58-3.89.19-2.34-1.55-4.39-3.89-4.58-.23-.02-.46-.02-.69,0h-3.1ZM9.66,13.66c.02,2.47,2.04,4.45,4.51,4.43,2.47-.02,4.45-2.04,4.43-4.51-.02-2.45-2.02-4.43-4.47-4.43-2.47.04-4.45,2.04-4.47,4.51" fill="#fff" stroke-width="0"/>
          </g>
        </g>
      </g>
      <g id="Grupo_308" data-name="Grupo 308">
        <g clip-path="url(#clippath-1)">
          <g id="Grupo_307" data-name="Grupo 307">
            <path id="Trazado_2555" data-name="Trazado 2555" d="M13.28,32.73l-1.53,2.94c-.42.82-.74,1.23-1.54,1.23-.27,0-.54-.02-.81-.08l.11-.58c.29.01.44.01.64.01.36,0,.46-.13.68-.57l.08-.15-.58-2.79-.36-.03.12-.65h1.02l.25,1.78c.05.31.08.62.1.93h.01c.11-.31.24-.62.38-.91l.84-1.8h1.07l-.12.65-.37.03Z" fill="#41474d" stroke-width="0"/>
            <path id="Trazado_2556" data-name="Trazado 2556" d="M15.05,35.63c-.92,0-1.35-.45-1.35-1.26,0-.16.01-.31.04-.47l.07-.43c.07-.91.86-1.59,1.77-1.52h.03c.91,0,1.35.44,1.35,1.25,0,.16-.01.32-.04.47l-.08.43c-.06.9-.83,1.59-1.73,1.53,0,0,0,0,0,0h-.08M16.13,33.64c.02-.13.04-.26.04-.39,0-.42-.2-.59-.63-.59-.53,0-.8.26-.92.93l-.08.43c-.02.11-.03.23-.03.34,0,.42.2.58.63.58.53,0,.81-.25.93-.93l.07-.37Z" fill="#41474d" stroke-width="0"/>
            <path id="Trazado_2557" data-name="Trazado 2557" d="M19.61,35.54l.04-.28c-.37.22-.78.34-1.21.37-.71,0-.9-.44-.9-.95,0-.18.02-.37.06-.55l.24-1.4-.3-.03.12-.65h1.13l-.39,2.16c-.02.13-.04.26-.04.38,0,.26.11.35.42.35.33-.03.64-.11.94-.24l.35-1.98-.3-.03.12-.65h1.13l-.5,2.81.3.03-.11.65h-1.09Z" fill="#41474d" stroke-width="0"/>
            <path id="Trazado_2558" data-name="Trazado 2558" d="M22.84,32.92l-.34,1.94.3.03-.11.65h-1.43l.11-.65.31-.03.37-2.13-.3-.03.12-.65h1.08l-.05.29c.37-.26.81-.39,1.26-.38l-.13.75c-.41,0-.81.07-1.19.21" fill="#41474d" stroke-width="0"/>
            <path id="Trazado_2559" data-name="Trazado 2559" d="M27.6,35.54l.03-.18c-.32.18-.67.27-1.03.27-.68,0-1.06-.44-1.06-1.18,0-.16.01-.32.04-.48l.09-.5c.02-.87.74-1.55,1.61-1.53.06,0,.11,0,.17.01.24,0,.48.02.71.07l.12-.71-.34-.03.11-.57h1.17l-.73,4.14.3.03-.11.65h-1.08ZM28.05,32.7c-.21-.04-.43-.06-.64-.06-.5,0-.8.14-.94.93l-.09.5c-.02.11-.03.21-.03.32,0,.39.18.54.59.54.25,0,.51-.06.74-.15l.37-2.08Z" fill="#41474d" stroke-width="0"/>
            <path id="Trazado_2560" data-name="Trazado 2560" d="M31.33,35.54l.04-.23c-.35.21-.75.32-1.15.32-.42.05-.81-.24-.86-.66,0-.05,0-.11,0-.16,0-.14.02-.28.05-.41.16-.93.84-.95,1.82-.95h.42l.04-.21c.02-.09.03-.17.03-.26,0-.27-.16-.34-.65-.34-.16,0-.31,0-.48.02l-.11.31h-.57l.14-.81c.41-.12.84-.18,1.27-.18.91,0,1.22.3,1.22.91,0,.16-.02.33-.05.49l-.27,1.5.3.03-.11.65h-1.07ZM31.58,33.95h-.44c-.6,0-.87.07-.96.55-.02.07-.02.15-.03.22,0,.25.17.32.42.32.29,0,.58-.08.85-.21l.16-.87Z" fill="#41474d" stroke-width="0"/>
            <path id="Trazado_2561" data-name="Trazado 2561" d="M34.06,35.63c-.39.06-.75-.21-.81-.6,0-.06,0-.13,0-.19,0-.12.01-.23.04-.34l.32-1.8-.64-.05.11-.6h.65l.15-.87h.82l-.15.87h.85l-.12.65h-.85l-.33,1.86c-.02.09-.03.19-.03.28,0,.14.07.17.28.17.18,0,.43-.02.54-.02l-.1.56c-.24.06-.48.09-.73.1" fill="#41474d" stroke-width="0"/>
            <path id="Trazado_2562" data-name="Trazado 2562" d="M37.45,35.54l.04-.23c-.35.21-.75.32-1.15.32-.42.05-.81-.24-.86-.66,0-.05,0-.11,0-.16,0-.14.02-.28.05-.41.16-.93.84-.95,1.82-.95h.42l.04-.21c.02-.09.03-.17.03-.26,0-.27-.16-.34-.65-.34-.16,0-.31,0-.48.02l-.11.31h-.55l.14-.81c.41-.12.83-.18,1.26-.18.91,0,1.23.3,1.23.91,0,.16-.02.33-.05.49l-.27,1.5.3.03-.11.65h-1.07ZM37.69,33.95h-.44c-.6,0-.87.07-.96.55-.02.07-.02.15-.02.22,0,.25.17.32.42.32.29,0,.58-.08.85-.21l.15-.87Z" fill="#41474d" stroke-width="0"/>
            <path id="Trazado_2563" data-name="Trazado 2563" d="M42.13,35.63c-.24,0-.49-.03-.73-.07l-.1.58.3.03-.12.65h-1.43l.12-.65.31-.03.6-3.4-.3-.03.12-.65h1.07l-.04.23c.32-.2.7-.31,1.08-.31.65,0,1.02.38,1.02,1.14,0,.18-.02.35-.05.52l-.09.5c-.04.88-.77,1.56-1.65,1.52-.04,0-.08,0-.12,0M43.19,33.52c.02-.11.03-.22.03-.34,0-.39-.18-.53-.55-.53-.27,0-.54.07-.79.19l-.35,2.02c.21.04.42.07.63.07.49,0,.81-.17.94-.93l.09-.49Z" fill="#41474d" stroke-width="0"/>
            <path id="Trazado_2564" data-name="Trazado 2564" d="M46.36,35.54l.04-.23c-.35.21-.75.32-1.15.32-.42.05-.81-.24-.86-.66,0-.05,0-.11,0-.16,0-.14.02-.28.05-.41.16-.93.84-.95,1.82-.95h.42l.04-.21c.02-.09.03-.17.03-.26,0-.27-.16-.34-.65-.34-.16,0-.31,0-.48.02l-.11.31h-.57l.14-.81c.41-.12.84-.18,1.27-.18.91,0,1.23.3,1.23.91,0,.16-.02.33-.05.49l-.27,1.5.3.03-.11.65h-1.08ZM46.6,33.95h-.44c-.6,0-.87.07-.96.55-.02.07-.02.15-.02.22,0,.25.17.32.42.32.29,0,.58-.08.85-.21l.16-.87Z" fill="#41474d" stroke-width="0"/>
            <path id="Trazado_2565" data-name="Trazado 2565" d="M49.56,32.92l-.34,1.94.3.03-.11.65h-1.43l.11-.65.31-.03.37-2.13-.3-.03.12-.65h1.08l-.05.29c.37-.26.81-.39,1.26-.37l-.13.75c-.41,0-.81.07-1.19.21" fill="#41474d" stroke-width="0"/>
            <path id="Trazado_2566" data-name="Trazado 2566" d="M52.27,35.63c-.39.06-.75-.21-.81-.6,0-.06,0-.13,0-.19,0-.12.01-.23.04-.34l.32-1.8-.64-.05.11-.6h.65l.15-.87h.82l-.15.87h.85l-.12.65h-.85l-.33,1.86c-.02.09-.03.19-.03.28,0,.14.07.17.28.17.18,0,.43-.02.54-.02l-.1.56c-.24.06-.48.09-.73.1" fill="#41474d" stroke-width="0"/>
            <path id="Trazado_2567" data-name="Trazado 2567" d="M56.11,35.54l.38-2.22c.02-.11.03-.22.04-.33,0-.25-.11-.35-.4-.35-.33.03-.66.1-.96.24l-.35,1.98.3.03-.11.65h-1.44l.11-.65.31-.03.37-2.13-.3-.03.12-.65h1.09l-.05.28c.37-.22.78-.34,1.21-.37.71,0,.92.37.92.89,0,.19-.02.38-.06.57l-.25,1.44.3.03-.11.65h-1.12Z" fill="#41474d" stroke-width="0"/>
            <path id="Trazado_2568" data-name="Trazado 2568" d="M58.73,34.05c-.03.13-.05.27-.05.41,0,.32.16.49.81.49.43,0,.85-.03,1.28-.08l-.11.61c-.43.1-.88.15-1.32.15-1.02,0-1.45-.44-1.45-1.23,0-.19.02-.38.06-.57l.06-.29c.06-.93.86-1.64,1.79-1.58h.03c.64-.09,1.23.35,1.33.99.01.1.02.2,0,.3,0,.19-.02.38-.06.57l-.04.24h-2.33ZM60.36,33.46c.02-.1.03-.19.03-.29,0-.3-.13-.56-.65-.56-.66,0-.83.44-.9.84v.05s1.51,0,1.51,0v-.05Z" fill="#41474d" stroke-width="0"/>
            <path id="Trazado_2569" data-name="Trazado 2569" d="M62.95,32.92l-.34,1.94.3.03-.11.65h-1.43l.11-.65.31-.03.37-2.13-.3-.03.12-.65h1.09l-.05.29c.37-.26.81-.39,1.26-.37l-.13.75c-.41,0-.81.07-1.19.21" fill="#41474d" stroke-width="0"/>
          </g>
        </g>
      </g>
    </g>
  </g>
</svg>